<svg width="16" height="17" viewBox="0 0 16 17" fill="none" xmlns="http://www.w3.org/2000/svg">
<path d="M1 3.17588C1 2.75378 1.16389 2.34896 1.45561 2.0505C1.74733 1.75203 2.143 1.58435 2.55556 1.58435H5.10667C5.26984 1.58448 5.42884 1.6371 5.56117 1.73479C5.69349 1.83247 5.79244 1.97026 5.844 2.12865L7.00911 5.70401C7.06814 5.88572 7.06116 6.08311 6.98944 6.25997C6.91773 6.43683 6.78608 6.58131 6.61867 6.66688L4.86322 7.5661C5.72369 9.51455 7.24902 11.0751 9.15344 11.9556L10.0323 10.1595C10.116 9.98819 10.2572 9.8535 10.4301 9.7801C10.6029 9.70678 10.7959 9.69964 10.9734 9.76L14.468 10.9521C14.6229 11.0049 14.7577 11.1062 14.8532 11.2418C14.9487 11.3773 15 11.5401 15 11.7073V14.3165C15 14.7387 14.8361 15.1435 14.5444 15.4419C14.2527 15.7404 13.857 15.9081 13.4444 15.9081H12.6667C6.22356 15.9081 1 10.5637 1 3.97164V3.17588Z" stroke="#F3A800" stroke-width="2" stroke-linecap="round" stroke-linejoin="round"/>
</svg>
